<svg xmlns="http://www.w3.org/2000/svg" data-name="Layer 1" viewBox="0 0 100 125" x="0px" y="0px"><path d="M70.09,43.38,50.86,27.8a1.35,1.35,0,0,0-1.7,0L29.91,43.38a1.34,1.34,0,0,0-.5,1V71.15a1.34,1.34,0,0,0,1.35,1.35H42.28a1.35,1.35,0,0,0,1.35-1.35v-15A1.35,1.35,0,0,1,45,54.81H55a1.35,1.35,0,0,1,1.35,1.35v15a1.35,1.35,0,0,0,1.35,1.35H69.24a1.35,1.35,0,0,0,1.35-1.35V44.43A1.34,1.34,0,0,0,70.09,43.38Z"/><text x="0" y="115" fill="#000000" font-size="5px" font-weight="bold" font-family="'Helvetica Neue', Helvetica, Arial-Unicode, Arial, Sans-serif">Created by Oh Rian</text><text x="0" y="120" fill="#000000" font-size="5px" font-weight="bold" font-family="'Helvetica Neue', Helvetica, Arial-Unicode, Arial, Sans-serif">from the Noun Project</text></svg>